<mxfile host="Electron" agent="Mozilla/5.0 (Windows NT 10.0; Win64; x64) AppleWebKit/537.36 (KHTML, like Gecko) draw.io/24.7.8 Chrome/128.0.6613.36 Electron/32.0.1 Safari/537.36" version="24.7.8">
  <diagram name="Página-1" id="KkoqjLe8380xabYpRcIO">
    <mxGraphModel dx="1092" dy="1803" grid="1" gridSize="10" guides="1" tooltips="1" connect="1" arrows="1" fold="1" page="1" pageScale="1" pageWidth="827" pageHeight="1169" math="0" shadow="0">
      <root>
        <mxCell id="0" />
        <mxCell id="1" parent="0" />
        <mxCell id="L6e2xnCbsZMSuWaV4smm-16" style="edgeStyle=orthogonalEdgeStyle;rounded=0;orthogonalLoop=1;jettySize=auto;html=1;entryX=0;entryY=0.5;entryDx=0;entryDy=0;" edge="1" parent="1" source="L6e2xnCbsZMSuWaV4smm-1" target="L6e2xnCbsZMSuWaV4smm-64">
          <mxGeometry relative="1" as="geometry">
            <mxPoint x="520" y="170" as="targetPoint" />
          </mxGeometry>
        </mxCell>
        <mxCell id="L6e2xnCbsZMSuWaV4smm-1" value="Arduino X" style="shape=image;verticalLabelPosition=bottom;labelBackgroundColor=default;verticalAlign=top;aspect=fixed;imageAspect=0;image=https://brandslogos.com/wp-content/uploads/images/large/arduino-logo-1.png;" vertex="1" parent="1">
          <mxGeometry x="240" y="40" width="79.94" height="80" as="geometry" />
        </mxCell>
        <mxCell id="L6e2xnCbsZMSuWaV4smm-2" value="Sensor N" style="shape=image;verticalLabelPosition=bottom;labelBackgroundColor=default;verticalAlign=top;aspect=fixed;imageAspect=0;image=https://cdn-icons-png.freepik.com/512/9708/9708985.png;" vertex="1" parent="1">
          <mxGeometry x="180" y="-60" width="60" height="60" as="geometry" />
        </mxCell>
        <mxCell id="L6e2xnCbsZMSuWaV4smm-3" value="Actuator M" style="shape=image;verticalLabelPosition=bottom;labelBackgroundColor=default;verticalAlign=top;aspect=fixed;imageAspect=0;image=https://cdn-icons-png.flaticon.com/512/6276/6276775.png;" vertex="1" parent="1">
          <mxGeometry x="320" y="-60" width="60" height="60" as="geometry" />
        </mxCell>
        <mxCell id="L6e2xnCbsZMSuWaV4smm-4" value="" style="endArrow=none;html=1;rounded=0;exitX=0;exitY=0.5;exitDx=0;exitDy=0;" edge="1" parent="1" source="L6e2xnCbsZMSuWaV4smm-3">
          <mxGeometry width="50" height="50" relative="1" as="geometry">
            <mxPoint x="300" y="30" as="sourcePoint" />
            <mxPoint x="280" y="-30" as="targetPoint" />
          </mxGeometry>
        </mxCell>
        <mxCell id="L6e2xnCbsZMSuWaV4smm-5" value="" style="endArrow=classic;html=1;rounded=0;entryX=0.5;entryY=0;entryDx=0;entryDy=0;" edge="1" parent="1" target="L6e2xnCbsZMSuWaV4smm-1">
          <mxGeometry width="50" height="50" relative="1" as="geometry">
            <mxPoint x="280.03" y="-30" as="sourcePoint" />
            <mxPoint x="280" y="40" as="targetPoint" />
          </mxGeometry>
        </mxCell>
        <mxCell id="L6e2xnCbsZMSuWaV4smm-7" value="" style="endArrow=none;html=1;rounded=0;exitX=0;exitY=0.5;exitDx=0;exitDy=0;entryX=1;entryY=0.5;entryDx=0;entryDy=0;" edge="1" parent="1" target="L6e2xnCbsZMSuWaV4smm-2">
          <mxGeometry width="50" height="50" relative="1" as="geometry">
            <mxPoint x="280" y="-30.17" as="sourcePoint" />
            <mxPoint x="240" y="-30.17" as="targetPoint" />
          </mxGeometry>
        </mxCell>
        <mxCell id="L6e2xnCbsZMSuWaV4smm-17" style="edgeStyle=orthogonalEdgeStyle;rounded=0;orthogonalLoop=1;jettySize=auto;html=1;entryX=0;entryY=0.5;entryDx=0;entryDy=0;" edge="1" parent="1" source="L6e2xnCbsZMSuWaV4smm-8" target="L6e2xnCbsZMSuWaV4smm-64">
          <mxGeometry relative="1" as="geometry">
            <mxPoint x="520" y="180" as="targetPoint" />
          </mxGeometry>
        </mxCell>
        <mxCell id="L6e2xnCbsZMSuWaV4smm-8" value="Arduino Y" style="shape=image;verticalLabelPosition=bottom;labelBackgroundColor=default;verticalAlign=top;aspect=fixed;imageAspect=0;image=https://brandslogos.com/wp-content/uploads/images/large/arduino-logo-1.png;" vertex="1" parent="1">
          <mxGeometry x="240.06" y="200" width="79.94" height="80" as="geometry" />
        </mxCell>
        <mxCell id="L6e2xnCbsZMSuWaV4smm-9" value="N Sensors" style="shape=image;verticalLabelPosition=bottom;labelBackgroundColor=default;verticalAlign=top;aspect=fixed;imageAspect=0;image=https://cdn-icons-png.freepik.com/512/9708/9708985.png;" vertex="1" parent="1">
          <mxGeometry x="180" y="300" width="60" height="60" as="geometry" />
        </mxCell>
        <mxCell id="L6e2xnCbsZMSuWaV4smm-10" value="M Actuators" style="shape=image;verticalLabelPosition=bottom;labelBackgroundColor=default;verticalAlign=top;aspect=fixed;imageAspect=0;image=https://cdn-icons-png.flaticon.com/512/6276/6276775.png;" vertex="1" parent="1">
          <mxGeometry x="320" y="300" width="60" height="60" as="geometry" />
        </mxCell>
        <mxCell id="L6e2xnCbsZMSuWaV4smm-11" value="" style="endArrow=none;html=1;rounded=0;exitX=0;exitY=0.5;exitDx=0;exitDy=0;" edge="1" parent="1" source="L6e2xnCbsZMSuWaV4smm-10">
          <mxGeometry width="50" height="50" relative="1" as="geometry">
            <mxPoint x="300" y="390" as="sourcePoint" />
            <mxPoint x="280" y="330" as="targetPoint" />
          </mxGeometry>
        </mxCell>
        <mxCell id="L6e2xnCbsZMSuWaV4smm-12" value="" style="endArrow=classic;html=1;rounded=0;entryX=0.5;entryY=1;entryDx=0;entryDy=0;" edge="1" parent="1">
          <mxGeometry width="50" height="50" relative="1" as="geometry">
            <mxPoint x="280.03" y="330" as="sourcePoint" />
            <mxPoint x="280.03" y="300" as="targetPoint" />
          </mxGeometry>
        </mxCell>
        <mxCell id="L6e2xnCbsZMSuWaV4smm-13" value="" style="endArrow=none;html=1;rounded=0;exitX=0;exitY=0.5;exitDx=0;exitDy=0;entryX=1;entryY=0.5;entryDx=0;entryDy=0;" edge="1" parent="1" target="L6e2xnCbsZMSuWaV4smm-9">
          <mxGeometry width="50" height="50" relative="1" as="geometry">
            <mxPoint x="280" y="329.83" as="sourcePoint" />
            <mxPoint x="240" y="329.83" as="targetPoint" />
          </mxGeometry>
        </mxCell>
        <mxCell id="L6e2xnCbsZMSuWaV4smm-31" style="edgeStyle=orthogonalEdgeStyle;rounded=0;orthogonalLoop=1;jettySize=auto;html=1;" edge="1" parent="1" source="L6e2xnCbsZMSuWaV4smm-15">
          <mxGeometry relative="1" as="geometry">
            <mxPoint x="890" y="160" as="targetPoint" />
          </mxGeometry>
        </mxCell>
        <mxCell id="L6e2xnCbsZMSuWaV4smm-76" style="edgeStyle=orthogonalEdgeStyle;rounded=0;orthogonalLoop=1;jettySize=auto;html=1;entryX=0;entryY=0.5;entryDx=0;entryDy=0;" edge="1" parent="1" source="L6e2xnCbsZMSuWaV4smm-15" target="L6e2xnCbsZMSuWaV4smm-63">
          <mxGeometry relative="1" as="geometry">
            <Array as="points">
              <mxPoint x="830" y="160" />
              <mxPoint x="830" y="370" />
              <mxPoint x="1170" y="370" />
              <mxPoint x="1170" y="170" />
            </Array>
          </mxGeometry>
        </mxCell>
        <mxCell id="L6e2xnCbsZMSuWaV4smm-15" value="Raspberry Pi Z" style="shape=image;verticalLabelPosition=bottom;labelBackgroundColor=default;verticalAlign=top;aspect=fixed;imageAspect=0;image=https://upload.wikimedia.org/wikipedia/commons/thumb/2/26/Raspberry_Pi_B%2B_illustration.svg/2560px-Raspberry_Pi_B%2B_illustration.svg.png;" vertex="1" parent="1">
          <mxGeometry x="650" y="120" width="119.99" height="80" as="geometry" />
        </mxCell>
        <mxCell id="L6e2xnCbsZMSuWaV4smm-18" value="TCP/IP &lt;br&gt;over WiFi" style="text;html=1;align=center;verticalAlign=middle;resizable=0;points=[];autosize=1;strokeColor=none;fillColor=none;" vertex="1" parent="1">
          <mxGeometry x="344" y="140" width="70" height="40" as="geometry" />
        </mxCell>
        <mxCell id="L6e2xnCbsZMSuWaV4smm-21" value="&lt;div&gt;MQTT Broker&lt;br&gt;192.168.1.101:1883 (Non-secure)&lt;/div&gt;" style="text;html=1;align=center;verticalAlign=middle;resizable=0;points=[];autosize=1;strokeColor=none;fillColor=none;" vertex="1" parent="1">
          <mxGeometry x="520" y="230" width="200" height="40" as="geometry" />
        </mxCell>
        <mxCell id="L6e2xnCbsZMSuWaV4smm-23" style="edgeStyle=orthogonalEdgeStyle;rounded=0;orthogonalLoop=1;jettySize=auto;html=1;entryX=0.5;entryY=0;entryDx=0;entryDy=0;" edge="1" parent="1" source="L6e2xnCbsZMSuWaV4smm-22" target="L6e2xnCbsZMSuWaV4smm-15">
          <mxGeometry relative="1" as="geometry" />
        </mxCell>
        <mxCell id="L6e2xnCbsZMSuWaV4smm-22" value="Camera&#xa;Serial Interface" style="shape=image;verticalLabelPosition=bottom;labelBackgroundColor=default;verticalAlign=top;aspect=fixed;imageAspect=0;image=https://projects-static.raspberrypi.org/projects/getting-started-with-picamera/99e12405e6f165de16d0c9d6036cb55f5e1d2526/en/images/camera-module.png;clipPath=inset(6% 34.67% 10.8% 31.33%);" vertex="1" parent="1">
          <mxGeometry x="676.2" y="-87.83" width="67.59" height="137.83" as="geometry" />
        </mxCell>
        <mxCell id="L6e2xnCbsZMSuWaV4smm-27" value="      Self-Hosted Server" style="shape=image;verticalLabelPosition=bottom;labelBackgroundColor=default;verticalAlign=top;aspect=fixed;imageAspect=0;image=https://cdn-icons-png.flaticon.com/512/4854/4854186.png;" vertex="1" parent="1">
          <mxGeometry x="970" y="120" width="80" height="80" as="geometry" />
        </mxCell>
        <mxCell id="L6e2xnCbsZMSuWaV4smm-29" value="MQTT Broker&lt;br&gt;192.168.1.73:1883 (Non-secure)" style="text;html=1;align=center;verticalAlign=middle;resizable=0;points=[];autosize=1;strokeColor=none;fillColor=none;" vertex="1" parent="1">
          <mxGeometry x="840" y="230" width="200" height="40" as="geometry" />
        </mxCell>
        <mxCell id="L6e2xnCbsZMSuWaV4smm-44" value="" style="shape=cylinder3;whiteSpace=wrap;html=1;boundedLbl=1;backgroundOutline=1;size=15;" vertex="1" parent="1">
          <mxGeometry x="1010" y="-580" width="280" height="280" as="geometry" />
        </mxCell>
        <mxCell id="L6e2xnCbsZMSuWaV4smm-45" value="" style="shape=image;verticalLabelPosition=bottom;labelBackgroundColor=default;verticalAlign=top;aspect=fixed;imageAspect=0;image=https://static-00.iconduck.com/assets.00/prometheus-icon-511x512-1vmxbcxr.png;" vertex="1" parent="1">
          <mxGeometry x="1040" y="-461.0799999999999" width="41" height="41.08" as="geometry" />
        </mxCell>
        <mxCell id="L6e2xnCbsZMSuWaV4smm-46" value="" style="shape=image;verticalLabelPosition=bottom;labelBackgroundColor=default;verticalAlign=top;aspect=fixed;imageAspect=0;image=https://static-00.iconduck.com/assets.00/influxdb-icon-2017x2048-38lz5101.png;" vertex="1" parent="1">
          <mxGeometry x="1039.6299999999999" y="-502.1" width="40.4" height="41.02" as="geometry" />
        </mxCell>
        <mxCell id="L6e2xnCbsZMSuWaV4smm-47" value="" style="shape=image;verticalLabelPosition=bottom;labelBackgroundColor=default;verticalAlign=top;aspect=fixed;imageAspect=0;image=https://s3.amazonaws.com/assets.timescale.com/timescale-web/brand-images/badge/black/logo-black.png;" vertex="1" parent="1">
          <mxGeometry x="1040" y="-420" width="40.03" height="40" as="geometry" />
        </mxCell>
        <mxCell id="L6e2xnCbsZMSuWaV4smm-48" value="InfluxDB&lt;div&gt;Prometheus&lt;/div&gt;&lt;div&gt;TimescaleDB&lt;/div&gt;" style="text;html=1;align=center;verticalAlign=middle;resizable=0;points=[];autosize=1;strokeColor=none;fillColor=none;" vertex="1" parent="1">
          <mxGeometry x="1015.5" y="-380" width="90" height="60" as="geometry" />
        </mxCell>
        <mxCell id="L6e2xnCbsZMSuWaV4smm-49" value="" style="endArrow=none;html=1;rounded=0;exitX=0.5;exitY=1;exitDx=0;exitDy=0;exitPerimeter=0;entryX=0.5;entryY=0;entryDx=0;entryDy=0;entryPerimeter=0;" edge="1" parent="1">
          <mxGeometry width="50" height="50" relative="1" as="geometry">
            <mxPoint x="1110" y="-300" as="sourcePoint" />
            <mxPoint x="1110" y="-580" as="targetPoint" />
          </mxGeometry>
        </mxCell>
        <mxCell id="L6e2xnCbsZMSuWaV4smm-50" value="Time-series" style="text;html=1;align=center;verticalAlign=middle;resizable=0;points=[];autosize=1;strokeColor=none;fillColor=none;" vertex="1" parent="1">
          <mxGeometry x="1014.8299999999999" y="-580" width="90" height="30" as="geometry" />
        </mxCell>
        <mxCell id="L6e2xnCbsZMSuWaV4smm-51" value="SQL" style="text;html=1;align=center;verticalAlign=middle;resizable=0;points=[];autosize=1;strokeColor=none;fillColor=none;" vertex="1" parent="1">
          <mxGeometry x="1130" y="-580" width="50" height="30" as="geometry" />
        </mxCell>
        <mxCell id="L6e2xnCbsZMSuWaV4smm-53" value="" style="shape=image;verticalLabelPosition=bottom;labelBackgroundColor=default;verticalAlign=top;aspect=fixed;imageAspect=0;image=https://static-00.iconduck.com/assets.00/postgresql-icon-1987x2048-v2fkmdaw.png;" vertex="1" parent="1">
          <mxGeometry x="1135.6" y="-502.1" width="38.8" height="40" as="geometry" />
        </mxCell>
        <mxCell id="L6e2xnCbsZMSuWaV4smm-54" value="PostgreSQL" style="text;html=1;align=center;verticalAlign=middle;resizable=0;points=[];autosize=1;strokeColor=none;fillColor=none;" vertex="1" parent="1">
          <mxGeometry x="1110" y="-365" width="90" height="30" as="geometry" />
        </mxCell>
        <mxCell id="L6e2xnCbsZMSuWaV4smm-55" value="" style="endArrow=none;html=1;rounded=0;exitX=0.5;exitY=1;exitDx=0;exitDy=0;exitPerimeter=0;entryX=0.5;entryY=0;entryDx=0;entryDy=0;entryPerimeter=0;" edge="1" parent="1">
          <mxGeometry width="50" height="50" relative="1" as="geometry">
            <mxPoint x="1200" y="-300" as="sourcePoint" />
            <mxPoint x="1200" y="-580" as="targetPoint" />
          </mxGeometry>
        </mxCell>
        <mxCell id="L6e2xnCbsZMSuWaV4smm-56" value="MongoDB" style="text;html=1;align=center;verticalAlign=middle;resizable=0;points=[];autosize=1;strokeColor=none;fillColor=none;" vertex="1" parent="1">
          <mxGeometry x="1205" y="-365" width="80" height="30" as="geometry" />
        </mxCell>
        <mxCell id="L6e2xnCbsZMSuWaV4smm-58" value="NoSQL" style="text;html=1;align=center;verticalAlign=middle;resizable=0;points=[];autosize=1;strokeColor=none;fillColor=none;" vertex="1" parent="1">
          <mxGeometry x="1210" y="-580" width="60" height="30" as="geometry" />
        </mxCell>
        <mxCell id="L6e2xnCbsZMSuWaV4smm-57" value="" style="shape=image;verticalLabelPosition=bottom;labelBackgroundColor=default;verticalAlign=top;aspect=fixed;imageAspect=0;image=https://www.svgrepo.com/show/331488/mongodb.svg;" vertex="1" parent="1">
          <mxGeometry x="1225" y="-502.1" width="40" height="40" as="geometry" />
        </mxCell>
        <mxCell id="L6e2xnCbsZMSuWaV4smm-59" value="Real-time Sensorial &amp;amp; Actuators Data" style="shape=callout;whiteSpace=wrap;html=1;perimeter=calloutPerimeter;position2=1;size=60;position=0.46;" vertex="1" parent="1">
          <mxGeometry x="890" y="-700" width="130" height="130" as="geometry" />
        </mxCell>
        <mxCell id="L6e2xnCbsZMSuWaV4smm-61" value="Devices (Arduino &amp;amp; Rasp) types, versions, status (online/offline)&lt;div&gt;Used for the Web Application as well&lt;/div&gt;" style="shape=callout;whiteSpace=wrap;html=1;perimeter=calloutPerimeter;position2=0.54;size=50;position=0.46;base=20;" vertex="1" parent="1">
          <mxGeometry x="1090" y="-710" width="130" height="130" as="geometry" />
        </mxCell>
        <mxCell id="L6e2xnCbsZMSuWaV4smm-62" value="Configuration Files&lt;div&gt;General Logs&lt;/div&gt;" style="shape=callout;whiteSpace=wrap;html=1;perimeter=calloutPerimeter;position2=0;size=60;position=0.46;" vertex="1" parent="1">
          <mxGeometry x="1285" y="-700" width="130" height="130" as="geometry" />
        </mxCell>
        <mxCell id="L6e2xnCbsZMSuWaV4smm-64" value="RabbitMQ" style="shape=image;verticalLabelPosition=bottom;labelBackgroundColor=default;verticalAlign=top;aspect=fixed;imageAspect=0;image=https://media.dev.to/cdn-cgi/image/width=1080,height=1080,fit=cover,gravity=auto,format=auto/https%3A%2F%2Fdev-to-uploads.s3.amazonaws.com%2Fuploads%2Farticles%2Fcsanba2xewj1pw2zprlh.png;" vertex="1" parent="1">
          <mxGeometry x="570" y="120" width="80" height="80" as="geometry" />
        </mxCell>
        <mxCell id="L6e2xnCbsZMSuWaV4smm-66" value="RabbitMQ" style="shape=image;verticalLabelPosition=bottom;labelBackgroundColor=default;verticalAlign=top;aspect=fixed;imageAspect=0;image=https://media.dev.to/cdn-cgi/image/width=1080,height=1080,fit=cover,gravity=auto,format=auto/https%3A%2F%2Fdev-to-uploads.s3.amazonaws.com%2Fuploads%2Farticles%2Fcsanba2xewj1pw2zprlh.png;" vertex="1" parent="1">
          <mxGeometry x="890" y="120" width="80" height="80" as="geometry" />
        </mxCell>
        <mxCell id="L6e2xnCbsZMSuWaV4smm-70" value="Local - Client ABC" style="swimlane;whiteSpace=wrap;html=1;fillColor=#d80073;strokeColor=#A50040;fontColor=#ffffff;" vertex="1" parent="1">
          <mxGeometry x="120" y="-180" width="970" height="600" as="geometry" />
        </mxCell>
        <mxCell id="L6e2xnCbsZMSuWaV4smm-68" value="Publish to 192.168.1.73:1883&lt;div&gt;Topics:&lt;/div&gt;&lt;div&gt;- Rasp_&lt;b&gt;Z&lt;/b&gt;/Arduino_&amp;lt;&lt;b&gt;X&lt;/b&gt;/&lt;b&gt;Y&lt;/b&gt;&amp;gt;/Sensor_&lt;b&gt;N&lt;/b&gt;&lt;/div&gt;&lt;div&gt;-&amp;nbsp;&lt;span style=&quot;background-color: initial;&quot;&gt;Rasp_&lt;b&gt;Z&lt;/b&gt;/&lt;/span&gt;&lt;span style=&quot;background-color: initial;&quot;&gt;Arduino_&amp;lt;&lt;b&gt;X&lt;/b&gt;/&lt;b&gt;Y&lt;/b&gt;&amp;gt;/Actuator_&lt;b&gt;M&lt;/b&gt;&lt;/span&gt;&lt;/div&gt;" style="shape=callout;whiteSpace=wrap;html=1;perimeter=calloutPerimeter;size=220;position=0.38;position2=0.38;base=20;" vertex="1" parent="L6e2xnCbsZMSuWaV4smm-70">
          <mxGeometry x="660" y="50" width="210" height="290" as="geometry" />
        </mxCell>
        <mxCell id="L6e2xnCbsZMSuWaV4smm-28" value="Publish to 192.168.1.101:1883&lt;div&gt;Topics:&lt;/div&gt;&lt;div&gt;- Arduino_&amp;lt;&lt;b&gt;X&lt;/b&gt;/&lt;b&gt;Y&lt;/b&gt;&amp;gt;/Sensor_&lt;b&gt;N&lt;/b&gt;&lt;/div&gt;&lt;div&gt;- Arduino_&amp;lt;&lt;b&gt;X&lt;/b&gt;/&lt;b&gt;Y&lt;/b&gt;&amp;gt;/Actuator_&lt;b&gt;M&lt;/b&gt;&lt;/div&gt;" style="shape=callout;whiteSpace=wrap;html=1;perimeter=calloutPerimeter;size=220;position=0.48;position2=0.57;base=19;" vertex="1" parent="L6e2xnCbsZMSuWaV4smm-70">
          <mxGeometry x="280" y="50" width="210" height="290" as="geometry" />
        </mxCell>
        <mxCell id="L6e2xnCbsZMSuWaV4smm-75" value="Cloud" style="swimlane;whiteSpace=wrap;html=1;fillColor=#a20025;fontColor=#ffffff;strokeColor=#6F0000;" vertex="1" parent="1">
          <mxGeometry x="1240" y="-180" width="430" height="600" as="geometry" />
        </mxCell>
        <mxCell id="L6e2xnCbsZMSuWaV4smm-25" value="Server X" style="shape=image;verticalLabelPosition=bottom;labelBackgroundColor=default;verticalAlign=top;aspect=fixed;imageAspect=0;image=https://cdn-icons-png.flaticon.com/512/4829/4829008.png;" vertex="1" parent="L6e2xnCbsZMSuWaV4smm-75">
          <mxGeometry x="284.8299999999999" y="420" width="80" height="80" as="geometry" />
        </mxCell>
        <mxCell id="L6e2xnCbsZMSuWaV4smm-34" value="Server 1" style="shape=image;verticalLabelPosition=bottom;labelBackgroundColor=default;verticalAlign=top;aspect=fixed;imageAspect=0;image=https://cdn-icons-png.flaticon.com/512/4829/4829008.png;" vertex="1" parent="L6e2xnCbsZMSuWaV4smm-75">
          <mxGeometry x="284.8299999999999" y="260" width="80" height="80" as="geometry" />
        </mxCell>
        <mxCell id="L6e2xnCbsZMSuWaV4smm-36" value="..." style="text;html=1;align=center;verticalAlign=middle;resizable=0;points=[];autosize=1;strokeColor=none;fillColor=none;" vertex="1" parent="L6e2xnCbsZMSuWaV4smm-75">
          <mxGeometry x="309.8299999999999" y="370" width="30" height="30" as="geometry" />
        </mxCell>
        <mxCell id="L6e2xnCbsZMSuWaV4smm-42" style="rounded=0;orthogonalLoop=1;jettySize=auto;html=1;entryX=0;entryY=0.5;entryDx=0;entryDy=0;" edge="1" parent="L6e2xnCbsZMSuWaV4smm-75" target="L6e2xnCbsZMSuWaV4smm-34">
          <mxGeometry relative="1" as="geometry">
            <mxPoint x="214.82999999999993" y="372.5" as="targetPoint" />
            <mxPoint x="189.49999999999977" y="367.3192999999999" as="sourcePoint" />
          </mxGeometry>
        </mxCell>
        <mxCell id="L6e2xnCbsZMSuWaV4smm-67" value="Consumer" style="edgeLabel;html=1;align=center;verticalAlign=middle;resizable=0;points=[];" vertex="1" connectable="0" parent="L6e2xnCbsZMSuWaV4smm-42">
          <mxGeometry x="0.0018" y="1" relative="1" as="geometry">
            <mxPoint x="1" y="42" as="offset" />
          </mxGeometry>
        </mxCell>
        <mxCell id="L6e2xnCbsZMSuWaV4smm-43" style="rounded=0;orthogonalLoop=1;jettySize=auto;html=1;entryX=0;entryY=0.5;entryDx=0;entryDy=0;" edge="1" parent="L6e2xnCbsZMSuWaV4smm-75" target="L6e2xnCbsZMSuWaV4smm-25">
          <mxGeometry relative="1" as="geometry">
            <mxPoint x="189.49999999999977" y="383.1080999999999" as="sourcePoint" />
          </mxGeometry>
        </mxCell>
        <mxCell id="L6e2xnCbsZMSuWaV4smm-63" value="RabbitMQ" style="shape=image;verticalLabelPosition=bottom;labelBackgroundColor=default;verticalAlign=top;aspect=fixed;imageAspect=0;image=https://media.dev.to/cdn-cgi/image/width=1080,height=1080,fit=cover,gravity=auto,format=auto/https%3A%2F%2Fdev-to-uploads.s3.amazonaws.com%2Fuploads%2Farticles%2Fcsanba2xewj1pw2zprlh.png;" vertex="1" parent="L6e2xnCbsZMSuWaV4smm-75">
          <mxGeometry x="115.82999999999993" y="310" width="80" height="80" as="geometry" />
        </mxCell>
        <mxCell id="L6e2xnCbsZMSuWaV4smm-39" value="&lt;div&gt;10.27.10.84:8883 (SSL/TCL)&lt;/div&gt;&lt;div&gt;10.27.10.84:443 (Websocket)&lt;/div&gt;" style="text;html=1;align=center;verticalAlign=middle;resizable=0;points=[];autosize=1;strokeColor=none;fillColor=none;" vertex="1" parent="L6e2xnCbsZMSuWaV4smm-75">
          <mxGeometry x="54.82999999999993" y="440" width="180" height="40" as="geometry" />
        </mxCell>
        <mxCell id="L6e2xnCbsZMSuWaV4smm-80" style="edgeStyle=orthogonalEdgeStyle;rounded=0;orthogonalLoop=1;jettySize=auto;html=1;dashed=1;endArrow=none;endFill=0;exitX=1;exitY=0.5;exitDx=0;exitDy=0;" edge="1" parent="L6e2xnCbsZMSuWaV4smm-75">
          <mxGeometry relative="1" as="geometry">
            <mxPoint x="365" y="460" as="sourcePoint" />
            <mxPoint x="380" y="300" as="targetPoint" />
            <Array as="points">
              <mxPoint x="380" y="460" />
            </Array>
          </mxGeometry>
        </mxCell>
        <mxCell id="L6e2xnCbsZMSuWaV4smm-81" value="Publish to 10.27.10.84:{8883,443}&lt;div&gt;Topics:&lt;/div&gt;&lt;div&gt;- Client_&lt;b&gt;ABC&lt;/b&gt;/Rasp_&lt;b&gt;Z&lt;/b&gt;/Arduino_&amp;lt;&lt;b&gt;X&lt;/b&gt;/&lt;b&gt;Y&lt;/b&gt;&amp;gt;/Sensor_&lt;b&gt;N&lt;/b&gt;&lt;/div&gt;&lt;div&gt;- Client_&lt;b&gt;ABC&lt;/b&gt;&lt;span style=&quot;background-color: initial;&quot;&gt;/Rasp_&lt;b&gt;Z&lt;/b&gt;/&lt;/span&gt;&lt;span style=&quot;background-color: initial;&quot;&gt;Arduino_&amp;lt;&lt;b&gt;X&lt;/b&gt;/&lt;b&gt;Y&lt;/b&gt;&amp;gt;/Actuator_&lt;b&gt;M&lt;/b&gt;&lt;/span&gt;&lt;/div&gt;" style="shape=callout;whiteSpace=wrap;html=1;perimeter=calloutPerimeter;size=220;position=0.38;position2=0.38;base=20;" vertex="1" parent="L6e2xnCbsZMSuWaV4smm-75">
          <mxGeometry x="-60" y="60" width="280" height="290" as="geometry" />
        </mxCell>
        <mxCell id="L6e2xnCbsZMSuWaV4smm-77" style="edgeStyle=orthogonalEdgeStyle;rounded=0;orthogonalLoop=1;jettySize=auto;html=1;entryX=0.5;entryY=1;entryDx=0;entryDy=0;entryPerimeter=0;dashed=1;endArrow=none;endFill=0;" edge="1" parent="1" source="L6e2xnCbsZMSuWaV4smm-27" target="L6e2xnCbsZMSuWaV4smm-44">
          <mxGeometry relative="1" as="geometry">
            <Array as="points">
              <mxPoint x="1150" y="160" />
            </Array>
          </mxGeometry>
        </mxCell>
        <mxCell id="L6e2xnCbsZMSuWaV4smm-78" style="edgeStyle=orthogonalEdgeStyle;rounded=0;orthogonalLoop=1;jettySize=auto;html=1;entryX=0.533;entryY=1.006;entryDx=0;entryDy=0;entryPerimeter=0;dashed=1;endArrow=none;endFill=0;exitX=1;exitY=0.5;exitDx=0;exitDy=0;" edge="1" parent="1" source="L6e2xnCbsZMSuWaV4smm-34" target="L6e2xnCbsZMSuWaV4smm-44">
          <mxGeometry relative="1" as="geometry">
            <mxPoint x="1060" y="170" as="sourcePoint" />
            <mxPoint x="1350" y="-400" as="targetPoint" />
            <Array as="points">
              <mxPoint x="1620" y="120" />
              <mxPoint x="1620" y="-240" />
              <mxPoint x="1159" y="-240" />
            </Array>
          </mxGeometry>
        </mxCell>
      </root>
    </mxGraphModel>
  </diagram>
</mxfile>
